<svg width="800" height="600" viewBox="0 0 800 600" fill="none" xmlns="http://www.w3.org/2000/svg">
  <!-- Background gradient -->
  <rect width="800" height="600" fill="url(#paint0_linear)" />
  
  <!-- Plate -->
  <circle cx="400" cy="350" r="200" fill="white" stroke="#DDDDDD" stroke-width="5" />
  
  <!-- Food items -->
  <!-- Rice -->
  <ellipse cx="400" cy="350" rx="150" ry="120" fill="#FFF5E6" />
  
  <!-- Chicken -->
  <path d="M450 280C500 260 530 300 520 330C510 360 480 370 450 350C420 330 430 290 450 280Z" fill="#D4A76A" />
  
  <!-- Vegetables -->
  <circle cx="320" cy="300" r="25" fill="#FF6B6B" /> <!-- Tomato -->
  <circle cx="350" cy="270" r="20" fill="#FF6B6B" /> <!-- Tomato -->
  <path d="M300 380C320 370 340 390 330 410C320 430 290 430 280 410C270 390 280 390 300 380Z" fill="#4CAF50" /> <!-- Lettuce -->
  <path d="M480 380C500 370 520 390 510 410C500 430 470 430 460 410C450 390 460 390 480 380Z" fill="#4CAF50" /> <!-- Lettuce -->
  <ellipse cx="450" cy="420" rx="30" ry="15" fill="#FFC107" /> <!-- Corn -->
  
  <!-- Sauce drizzle -->
  <path d="M350 250C370 270 400 280 430 270C460 260 480 240 490 220" stroke="#FF6B6B" stroke-width="5" stroke-linecap="round" />
  
  <!-- Steam -->
  <path d="M350 200C360 180 350 160 330 150" stroke="white" stroke-width="3" stroke-linecap="round" />
  <path d="M400 180C410 160 400 140 380 130" stroke="white" stroke-width="3" stroke-linecap="round" />
  <path d="M450 200C460 180 450 160 430 150" stroke="white" stroke-width="3" stroke-linecap="round" />
  
  <!-- Utensils -->
  <rect x="600" y="300" width="10" height="150" rx="5" transform="rotate(30 600 300)" fill="#DDDDDD" />
  <path d="M620 270L650 320L640 330L610 280L620 270Z" fill="#DDDDDD" />
  
  <!-- Gradient definition -->
  <defs>
    <linearGradient id="paint0_linear" x1="400" y1="0" x2="400" y2="600" gradientUnits="userSpaceOnUse">
      <stop stop-color="#FBCFE8" />
      <stop offset="1" stop-color="#DB2777" stop-opacity="0.5" />
    </linearGradient>
  </defs>
</svg>
