<svg width="100" height="100" viewBox="0 0 100 100" fill="none" xmlns="http://www.w3.org/2000/svg">
  <circle cx="50" cy="50" r="45" fill="#EC4899" />
  <path d="M30 35C30 32.2386 32.2386 30 35 30H65C67.7614 30 70 32.2386 70 35V65C70 67.7614 67.7614 70 65 70H35C32.2386 70 30 67.7614 30 65V35Z" fill="white" />
  <path d="M40 45C40 42.2386 42.2386 40 45 40H55C57.7614 40 60 42.2386 60 45V55C60 57.7614 57.7614 60 55 60H45C42.2386 60 40 57.7614 40 55V45Z" fill="#EC4899" />
  <path d="M25 50C25 36.1929 36.1929 25 50 25V30C38.9543 30 30 38.9543 30 50H25Z" fill="#BE185D" />
  <path d="M75 50C75 63.8071 63.8071 75 50 75V70C61.0457 70 70 61.0457 70 50H75Z" fill="#BE185D" />
</svg>
